<svg xmlns="http://www.w3.org/2000/svg" width="1200" height="720" viewBox="0 0 1200 720">
<style>text{font-family:Inter,Arial,sans-serif;fill:#172033}.title{font-size:17px;font-weight:700}.axis{stroke:#94a3b8;stroke-width:1}.tick,.unit{font-size:10px;fill:#64748b}.label{font-size:11px}.value{font-size:9px}.legend{font-size:12px}</style>
<rect width="1200" height="720" fill="#ffffff"/>
<text x="48" y="34" font-size="24" font-weight="700">RewindBPF benchmark summary</text>
<text x="48" y="56" font-size="12" fill="#64748b">Five-run buffered fio measurements captured in the disposable Ubuntu VM</text>
<text x="48" y="98" class="title">Throughput</text>
<line x1="96" y1="110" x2="568" y2="110" class="axis"/>
<line x1="96" y1="110" x2="96" y2="286" class="axis"/>
<text x="50" y="290" class="tick">0</text>
<text x="50" y="116" class="tick">47537</text>
<rect x="106.0" y="134.7" width="34.0" height="151.3" fill="#2563eb"/>
<text x="123.0" y="130.7" text-anchor="middle" class="value">41336.6</text>
<rect x="143.0" y="221.3" width="34.0" height="64.7" fill="#2563eb"/>
<text x="160.0" y="217.3" text-anchor="middle" class="value">17683.4</text>
<text x="182.0" y="304" text-anchor="middle" class="label">B0 native</text>
<rect x="258.0" y="152.1" width="34.0" height="133.9" fill="#f59e0b"/>
<text x="275.0" y="148.1" text-anchor="middle" class="value">36574.8</text>
<rect x="295.0" y="228.7" width="34.0" height="57.3" fill="#f59e0b"/>
<text x="312.0" y="224.7" text-anchor="middle" class="value">15661.4</text>
<text x="334.0" y="304" text-anchor="middle" class="label">B2 FUSE</text>
<rect x="410.0" y="151.6" width="34.0" height="134.4" fill="#16a34a"/>
<text x="427.0" y="147.6" text-anchor="middle" class="value">36726.2</text>
<rect x="447.0" y="228.4" width="34.0" height="57.6" fill="#16a34a"/>
<text x="464.0" y="224.4" text-anchor="middle" class="value">15729.8</text>
<text x="486.0" y="304" text-anchor="middle" class="label">B4 Rewind</text>
<text x="564" y="320" text-anchor="end" class="unit">KiB/s</text>
<text x="610" y="98" class="title">p50 completion latency</text>
<line x1="658" y1="110" x2="1130" y2="110" class="axis"/>
<line x1="658" y1="110" x2="658" y2="286" class="axis"/>
<text x="612" y="290" class="tick">0</text>
<text x="612" y="116" class="tick">91</text>
<rect x="668.0" y="134.7" width="34.0" height="151.3" fill="#2563eb"/>
<text x="685.0" y="130.7" text-anchor="middle" class="value">79.2</text>
<rect x="705.0" y="279.6" width="34.0" height="6.4" fill="#2563eb"/>
<text x="722.0" y="275.6" text-anchor="middle" class="value">3.3</text>
<text x="744.0" y="304" text-anchor="middle" class="label">B0 native</text>
<rect x="820.0" y="159.5" width="34.0" height="126.5" fill="#f59e0b"/>
<text x="837.0" y="155.5" text-anchor="middle" class="value">66.2</text>
<rect x="857.0" y="155.9" width="34.0" height="130.1" fill="#f59e0b"/>
<text x="874.0" y="151.9" text-anchor="middle" class="value">68.1</text>
<text x="896.0" y="304" text-anchor="middle" class="label">B2 FUSE</text>
<rect x="972.0" y="158.6" width="34.0" height="127.4" fill="#16a34a"/>
<text x="989.0" y="154.6" text-anchor="middle" class="value">66.7</text>
<rect x="1009.0" y="154.7" width="34.0" height="131.3" fill="#16a34a"/>
<text x="1026.0" y="150.7" text-anchor="middle" class="value">68.7</text>
<text x="1048.0" y="304" text-anchor="middle" class="label">B4 Rewind</text>
<text x="1126" y="320" text-anchor="end" class="unit">microseconds</text>
<text x="48" y="400" class="title">IOPS</text>
<line x1="96" y1="412" x2="568" y2="412" class="axis"/>
<line x1="96" y1="412" x2="96" y2="588" class="axis"/>
<text x="50" y="592" class="tick">0</text>
<text x="50" y="418" class="tick">11884</text>
<rect x="106.0" y="436.7" width="34.0" height="151.3" fill="#2563eb"/>
<text x="123.0" y="432.7" text-anchor="middle" class="value">10334.2</text>
<rect x="143.0" y="523.3" width="34.0" height="64.7" fill="#2563eb"/>
<text x="160.0" y="519.3" text-anchor="middle" class="value">4421.0</text>
<text x="182.0" y="606" text-anchor="middle" class="label">B0 native</text>
<rect x="258.0" y="454.1" width="34.0" height="133.9" fill="#f59e0b"/>
<text x="275.0" y="450.1" text-anchor="middle" class="value">9143.8</text>
<rect x="295.0" y="530.7" width="34.0" height="57.3" fill="#f59e0b"/>
<text x="312.0" y="526.7" text-anchor="middle" class="value">3915.4</text>
<text x="334.0" y="606" text-anchor="middle" class="label">B2 FUSE</text>
<rect x="410.0" y="453.6" width="34.0" height="134.4" fill="#16a34a"/>
<text x="427.0" y="449.6" text-anchor="middle" class="value">9181.7</text>
<rect x="447.0" y="530.4" width="34.0" height="57.6" fill="#16a34a"/>
<text x="464.0" y="526.4" text-anchor="middle" class="value">3932.6</text>
<text x="486.0" y="606" text-anchor="middle" class="label">B4 Rewind</text>
<text x="564" y="622" text-anchor="end" class="unit">operations/s</text>
<text x="610" y="400" class="title">Upper layer size</text>
<line x1="658" y1="412" x2="1130" y2="412" class="axis"/>
<line x1="658" y1="412" x2="658" y2="588" class="axis"/>
<text x="612" y="592" class="tick">0</text>
<text x="612" y="418" class="tick">154350387</text>
<rect x="668.0" y="436.7" width="34.0" height="151.3" fill="#2563eb"/>
<text x="685.0" y="432.7" text-anchor="middle" class="value">134217728.0</text>
<text x="744.0" y="606" text-anchor="middle" class="label">B0 native</text>
<rect x="820.0" y="436.7" width="34.0" height="151.3" fill="#f59e0b"/>
<text x="837.0" y="432.7" text-anchor="middle" class="value">134217728.0</text>
<text x="896.0" y="606" text-anchor="middle" class="label">B2 FUSE</text>
<text x="1048.0" y="606" text-anchor="middle" class="label">B4 Rewind</text>
<text x="1126" y="622" text-anchor="end" class="unit">bytes</text>
<rect x="850" y="646" width="12" height="12" fill="#2563eb"/>
<text x="867" y="657" class="legend">B0 native</text>
<rect x="950" y="646" width="12" height="12" fill="#f59e0b"/>
<text x="967" y="657" class="legend">B2 FUSE</text>
<rect x="1050" y="646" width="12" height="12" fill="#16a34a"/>
<text x="1067" y="657" class="legend">B4 Rewind</text>
</svg>
